Coordinates
version=1
nRows=40
nColumns=38
inDegrees=no

Units are S.I. units (second, meters, Newtons, ...)
If the header above contains a line with 'inDegrees', this indicates whether rotational values are in degrees (yes) or radians (no).

endheader
time	pelvis_tilt	pelvis_list	pelvis_rotation	pelvis_tx	pelvis_ty	pelvis_tz	hip_flexion_r	hip_adduction_r	hip_rotation_r	knee_angle_r	ankle_angle_r	subtalar_angle_r	mtp_angle_r	hip_flexion_l	hip_adduction_l	hip_rotation_l	knee_angle_l	ankle_angle_l	subtalar_angle_l	mtp_angle_l	lumbar_extension	lumbar_bending	lumbar_rotation	arm_flex_r	arm_add_r	arm_rot_r	elbow_flex_r	pro_sup_r	wrist_flex_r	wrist_dev_r	arm_flex_l	arm_add_l	arm_rot_l	elbow_flex_l	pro_sup_l	wrist_flex_l	wrist_dev_l
0.97	0.030597	1.42637	-1.72918	0.883182	0.423205	0.956163	-0.345978	0.0339104	-0.0733647	0.0537622	0.108836	0	0	0.231419	-0.0134241	-0.391898	0.165488	0.00230329	0	0	-0.274294	0.00640834	-0.0685679	-0.158477	-0.0747295	-0.507641	0.322769	1.11834	0	0	-0.0754915	-0.301628	0.697394	0.612699	0.58348	0	0
0.98	0.0674493	1.43685	-1.76698	0.883665	0.414689	0.953693	-0.291544	0.0161356	-0.161507	0.159369	0.170974	0	0	0.232527	0.00483559	-0.377973	0.105226	-0.00326686	0	0	-0.263391	0.00302927	-0.0675881	-0.157091	-0.0752634	-0.507717	0.322406	1.11897	0	0	-0.0757442	-0.299337	0.698754	0.609492	0.582958	0	0
0.99	0.0757551	1.43321	-1.76592	0.884555	0.404393	0.952901	-0.355594	0.0272349	-0.085028	0.0630305	0.123926	0	0	0.204457	0.0268316	-0.325156	0.0232946	-0.0247071	0	0	-0.265232	0.00265227	-0.0761	-0.157144	-0.074641	-0.508693	0.320535	1.1214	0	0	-0.0775675	-0.298663	0.701344	0.607043	0.581249	0	0
1	0.0840914	1.43771	-1.77217	0.884841	0.394878	0.951151	-0.357833	0.0260757	-0.0886618	0.0708818	0.131165	0	0	0.200111	0.037337	-0.306115	0	-0.0259504	0	0	-0.259894	0.00233026	-0.0766106	-0.157457	-0.0742696	-0.509078	0.320158	1.12181	0	0	-0.0787097	-0.297272	0.702876	0.604716	0.58075	0	0
1.01	0.103233	1.43679	-1.78696	0.885016	0.386117	0.949658	-0.362898	0.026328	-0.0885287	0.0831487	0.135963	0	0	0.216692	0.0425421	-0.295091	0	-0.0168748	0	0	-0.261599	-0.00114445	-0.0773266	-0.157507	-0.0726686	-0.508922	0.320358	1.12211	0	0	-0.0773036	-0.297321	0.7056	0.602262	0.579928	0	0
1.02	0.114485	1.45008	-1.80652	0.882946	0.378471	0.946705	-0.28883	0.00436396	-0.192098	0.223605	0.205464	0	0	0.238869	0.0391898	-0.297009	0	-0.00254639	0	0	-0.250188	-0.00494924	-0.0656283	-0.156155	-0.0689382	-0.509042	0.319335	1.12209	0	0	-0.0764804	-0.300673	0.707506	0.603443	0.578611	0	0
1.03	0.14043	1.44431	-1.82435	0.885117	0.367038	0.946443	-0.355916	0.0189554	-0.11182	0.123381	0.163108	0	0	0.235756	0.0522441	-0.290413	0	0.00512043	0	0	-0.253164	-0.0063821	-0.0723706	-0.158015	-0.070215	-0.510776	0.31911	1.12209	0	0	-0.0778757	-0.296829	0.709876	0.599416	0.577032	0	0
1.04	0.156411	1.44097	-1.84354	0.884723	0.357066	0.945682	-0.369788	0.0142075	-0.104737	0.124097	0.160716	0	0	0.234179	0.0573334	-0.290603	0	0.00648623	0	0	-0.256317	-0.0115092	-0.0673935	-0.158347	-0.0684185	-0.510902	0.319024	1.12207	0	0	-0.0781101	-0.298295	0.711926	0.600737	0.575551	0	0
1.05	0.175623	1.43837	-1.86987	0.884206	0.34642	0.944906	-0.377267	0.0033946	-0.111191	0.135501	0.17022	0	0	0.233708	0.059833	-0.295021	0.00494376	0.00188461	0	0	-0.257814	-0.0177485	-0.0587181	-0.158895	-0.0668484	-0.511167	0.317934	1.12154	0	0	-0.0784701	-0.299328	0.714875	0.601306	0.573737	0	0
1.06	0.203117	1.43329	-1.90425	0.883421	0.336333	0.94424	-0.383571	-0.0064238	-0.111452	0.152907	0.177234	0	0	0.243605	0.0607501	-0.304736	0.0423654	-0.0004478	0	0	-0.262064	-0.0267425	-0.0487193	-0.159378	-0.0643975	-0.512309	0.315721	1.12027	0	0	-0.0775026	-0.301273	0.718127	0.602143	0.572244	0	0
1.07	0.226027	1.42931	-1.93606	0.882424	0.326073	0.943512	-0.386971	-0.0163964	-0.110164	0.17342	0.183991	0	0	0.255506	0.0588566	-0.319495	0.0870444	0.00395917	0	0	-0.264516	-0.0355151	-0.0360335	-0.160485	-0.0622922	-0.513814	0.312535	1.11847	0	0	-0.0766031	-0.302985	0.721806	0.603001	0.570492	0	0
1.08	0.240117	1.42633	-1.96167	0.881221	0.315511	0.942748	-0.388203	-0.0261961	-0.106177	0.196781	0.190402	0	0	0.266254	0.0543332	-0.335709	0.133416	0.0154834	0	0	-0.265051	-0.0432514	-0.0205263	-0.162512	-0.0611584	-0.513976	0.308693	1.11635	0	0	-0.076765	-0.303671	0.724719	0.602487	0.567774	0	0
1.09	0.245043	1.42403	-1.9802	0.879919	0.304567	0.941989	-0.388291	-0.0357356	-0.0998801	0.221887	0.19563	0	0	0.273126	0.0486716	-0.347983	0.176078	0.0308663	0	0	-0.264009	-0.0496118	-0.00303856	-0.16572	-0.0611334	-0.512274	0.304803	1.1128	0	0	-0.0791182	-0.303563	0.724873	0.602514	0.563687	0	0
1.1	0.245119	1.4217	-1.99545	0.878578	0.293258	0.941283	-0.387691	-0.0459612	-0.0927484	0.248743	0.1992	0	0	0.275245	0.043344	-0.356306	0.213511	0.0467919	0	0	-0.262041	-0.0553803	0.0153505	-0.169724	-0.0618824	-0.50965	0.300746	1.10738	0	0	-0.083299	-0.302755	0.722651	0.603188	0.560421	0	0
1.11	0.240524	1.42065	-2.00606	0.877323	0.281694	0.940489	-0.384504	-0.0558669	-0.0858144	0.278515	0.201471	0	0	0.275409	0.0380552	-0.362351	0.246695	0.0626535	0	0	-0.258156	-0.0596626	0.033013	-0.173946	-0.0630028	-0.509529	0.296104	1.10315	0	0	-0.0892033	-0.301179	0.718685	0.60312	0.557698	0	0
1.12	0.234716	1.42056	-2.01469	0.876252	0.269864	0.939641	-0.379092	-0.065803	-0.0791127	0.310968	0.202664	0	0	0.272956	0.0342309	-0.366204	0.272177	0.0770591	0	0	-0.252541	-0.0629638	0.0486475	-0.178304	-0.0642862	-0.512422	0.291067	1.10264	0	0	-0.096925	-0.299192	0.712941	0.602937	0.555528	0	0
1.13	0.235018	1.42154	-2.02716	0.875439	0.257784	0.938729	-0.370495	-0.0762398	-0.0745108	0.347233	0.202541	0	0	0.268771	0.0331353	-0.369774	0.288142	0.0842416	0	0	-0.244525	-0.0662656	0.0602693	-0.182722	-0.065506	-0.516158	0.285297	1.10549	0	0	-0.106776	-0.297387	0.705097	0.603069	0.554339	0	0
1.14	0.245804	1.42262	-2.04734	0.87498	0.245598	0.937876	-0.358606	-0.0881411	-0.0726603	0.388393	0.199756	0	0	0.262615	0.0358051	-0.372876	0.294047	0.0763494	0	0	-0.235457	-0.0705468	0.0674456	-0.187037	-0.066302	-0.519124	0.279998	1.10773	0	0	-0.11757	-0.296178	0.697367	0.603563	0.553619	0	0
1.15	0.268526	1.42337	-2.07529	0.875011	0.233489	0.937214	-0.343199	-0.101435	-0.0747195	0.434837	0.192876	0	0	0.256665	0.0413033	-0.37522	0.296193	0.0551055	0	0	-0.226451	-0.0760308	0.0689949	-0.190374	-0.0664112	-0.522289	0.274586	1.11005	0	0	-0.128199	-0.29581	0.690453	0.604109	0.552674	0	0
1.16	0.312045	1.42295	-2.11937	0.875537	0.221672	0.936886	-0.322844	-0.117768	-0.0815153	0.488634	0.181302	0	0	0.252939	0.0497825	-0.375787	0.301456	0.031536	0	0	-0.218427	-0.0845465	0.0646985	-0.192164	-0.0652954	-0.526149	0.26852	1.11318	0	0	-0.137413	-0.296651	0.685176	0.60368	0.550137	0	0
1.17	0.377088	1.42141	-2.17983	0.876528	0.21012	0.93682	-0.297088	-0.137104	-0.0930519	0.549684	0.162959	0	0	0.253487	0.0607546	-0.374937	0.314195	0.0174925	0	0	-0.210905	-0.0960716	0.0548618	-0.192961	-0.06255	-0.532498	0.261271	1.11915	0	0	-0.144739	-0.299868	0.684598	0.604193	0.544685	0	0
1.18	0.442996	1.41957	-2.23728	0.877708	0.198723	0.936913	-0.267958	-0.155865	-0.105404	0.614977	0.136473	0	0	0.257451	0.0702655	-0.374914	0.335535	0.0163333	0	0	-0.203988	-0.107406	0.0418634	-0.193379	-0.0585273	-0.545013	0.252283	1.13219	0	0	-0.1505	-0.306148	0.691179	0.608006	0.533116	0	0
1.19	0.498383	1.41773	-2.28312	0.878804	0.187407	0.937081	-0.236338	-0.172634	-0.114947	0.683355	0.102529	0	0	0.260985	0.0770851	-0.37646	0.359183	0.0211335	0	0	-0.19803	-0.117143	0.0290936	-0.194796	-0.0539657	-0.561143	0.243119	1.14945	0	0	-0.154418	-0.314265	0.703738	0.613479	0.517685	0	0
1.2	0.544966	1.41619	-2.32035	0.879789	0.17619	0.9372	-0.202028	-0.187461	-0.120721	0.75399	0.0624524	0	0	0.262414	0.0821745	-0.378933	0.379985	0.0254442	0	0	-0.192708	-0.125437	0.0182844	-0.198378	-0.0492625	-0.576987	0.236172	1.16607	0	0	-0.156291	-0.323201	0.719881	0.619561	0.502438	0	0
1.21	0.586652	1.41459	-2.35304	0.880793	0.165192	0.937246	-0.16523	-0.201093	-0.123094	0.82592	0.0180188	0	0	0.261273	0.087295	-0.380568	0.396182	0.0280851	0	0	-0.188329	-0.13286	0.0094603	-0.203737	-0.0445292	-0.592014	0.232698	1.18126	0	0	-0.156044	-0.332812	0.738229	0.626448	0.488097	0	0
1.22	0.627755	1.41241	-2.38564	0.881926	0.154487	0.937238	-0.126195	-0.215042	-0.123406	0.898061	-0.0302437	0	0	0.257173	0.0945205	-0.380689	0.40592	0.0307553	0	0	-0.184842	-0.140238	0.002086	-0.210402	-0.0401218	-0.602774	0.232721	1.1933	0	0	-0.154122	-0.341866	0.754972	0.632618	0.478466	0	0
1.23	0.5582	1.40732	-2.30441	0.883252	0.143887	0.939528	-0.124029	-0.212748	-0.127661	0.929568	-0.080868	0	0	0.232289	0.0925336	-0.376045	0.40785	0.0361835	0	0	-0.199377	-0.134519	-0.00775723	-0.214085	-0.0382012	-0.608063	0.234779	1.19893	0	0	-0.146917	-0.344707	0.76626	0.630256	0.474935	0	0
1.24	0.702333	1.40442	-2.44393	0.884466	0.133801	0.937548	-0.0484882	-0.245125	-0.121352	1.03362	-0.137263	0	0	0.238656	0.116044	-0.37647	0.408892	0.0426581	0	0	-0.181638	-0.156316	-0.0103774	-0.224147	-0.0313157	-0.620695	0.242095	1.21217	0	0	-0.145785	-0.35843	0.783973	0.642505	0.4635	0	0
1.25	0.723465	1.39982	-2.457	0.885744	0.123904	0.938119	-0.0127784	-0.257531	-0.118317	1.09349	-0.192257	0	0	0.225208	0.126724	-0.37379	0.406115	0.0498897	0	0	-0.182848	-0.162831	-0.0172796	-0.228785	-0.027935	-0.624291	0.247263	1.21637	0	0	-0.140837	-0.364107	0.789691	0.644092	0.461637	0	0
1.26	0.733288	1.39456	-2.45971	0.886956	0.114162	0.93907	0.0193962	-0.267517	-0.112974	1.14607	-0.248668	0	0	0.208027	0.138038	-0.369245	0.399205	0.0551925	0	0	-0.185704	-0.168541	-0.0237939	-0.232151	-0.0253092	-0.626421	0.252088	1.22016	0	0	-0.135414	-0.36915	0.794317	0.644912	0.460501	0	0
1.27	0.727395	1.38815	-2.44821	0.88804	0.104494	0.94052	0.0465155	-0.27447	-0.10527	1.19117	-0.303276	0	0	0.185392	0.149823	-0.361706	0.387417	0.0586477	0	0	-0.191261	-0.173223	-0.0295081	-0.233534	-0.023798	-0.627395	0.254569	1.22371	0	0	-0.129838	-0.372879	0.795937	0.64472	0.459929	0	0
1.28	0.707011	1.38206	-2.42331	0.888947	0.094976	0.942368	0.0701976	-0.276744	-0.0954249	1.2311	-0.346403	0	0	0.159333	0.159682	-0.352641	0.373258	0.0614367	0	0	-0.19877	-0.175631	-0.0346679	-0.232457	-0.023461	-0.628006	0.253362	1.22736	0	0	-0.124351	-0.374994	0.792819	0.643603	0.461121	0	0
1.29	0.679223	1.37765	-2.39139	0.889685	0.0856563	0.944419	0.0933261	-0.274253	-0.0847415	1.26823	-0.366598	0	0	0.132891	0.166089	-0.343531	0.359089	0.0645407	0	0	-0.206186	-0.175432	-0.0395436	-0.22955	-0.0238277	-0.628866	0.248977	1.23053	0	0	-0.119069	-0.376321	0.78652	0.64237	0.464379	0	0
1.3	0.646208	1.37482	-2.35424	0.89033	0.076532	0.946593	0.115686	-0.26817	-0.0747916	1.30131	-0.363777	0	0	0.106517	0.16944	-0.334615	0.344488	0.0670929	0	0	-0.213253	-0.172838	-0.044131	-0.225358	-0.0245589	-0.63204	0.24205	1.23535	0	0	-0.113734	-0.377112	0.778307	0.641057	0.470342	0	0
1.31	0.608833	1.37308	-2.31236	0.890966	0.0675531	0.948815	0.136482	-0.259454	-0.0664311	1.32897	-0.345241	0	0	0.0806748	0.170207	-0.325391	0.330366	0.069047	0	0	-0.220042	-0.168144	-0.0486322	-0.221048	-0.025505	-0.635912	0.234695	1.23956	0	0	-0.108589	-0.377673	0.768107	0.64091	0.47771	0	0
1.32	0.569163	1.37222	-2.26764	0.891648	0.0587445	0.951014	0.15636	-0.248935	-0.0597447	1.35134	-0.319558	0	0	0.0557339	0.169139	-0.315425	0.316269	0.0699233	0	0	-0.226516	-0.1618	-0.0529441	-0.217046	-0.0264593	-0.640457	0.226909	1.24453	0	0	-0.102914	-0.378247	0.7581	0.641692	0.486091	0	0
1.33	0.529656	1.37211	-2.22266	0.892374	0.0501558	0.95311	0.17627	-0.237168	-0.0539822	1.36899	-0.29309	0	0	0.032279	0.166791	-0.304953	0.302525	0.0701446	0	0	-0.232486	-0.154464	-0.0568158	-0.213697	-0.0270917	-0.646159	0.219978	1.25113	0	0	-0.0964129	-0.378804	0.747267	0.644101	0.493959	0	0
1.34	0.491604	1.37265	-2.17924	0.893117	0.041689	0.955055	0.196694	-0.224564	-0.0482052	1.38232	-0.267961	0	0	0.0102365	0.163751	-0.294856	0.288891	0.0704242	0	0	-0.237497	-0.146548	-0.059921	-0.211707	-0.027157	-0.652976	0.216081	1.25787	0	0	-0.0893496	-0.379551	0.737386	0.647313	0.501984	0	0
1.35	0.454665	1.37341	-2.13694	0.893894	0.0332996	0.956886	0.216861	-0.211541	-0.042268	1.39079	-0.247802	0	0	-0.0110613	0.160467	-0.284998	0.275166	0.0709203	0	0	-0.241775	-0.138458	-0.0631215	-0.210742	-0.0268447	-0.658389	0.214677	1.26321	0	0	-0.0827275	-0.380279	0.726368	0.65114	0.512102	0	0
1.36	0.419274	1.3742	-2.09548	0.894759	0.0249938	0.958586	0.236232	-0.198743	-0.037019	1.39426	-0.232762	0	0	-0.0319654	0.157203	-0.275242	0.260962	0.0712885	0	0	-0.245697	-0.130325	-0.0671386	-0.210726	-0.0260378	-0.66222	0.215673	1.26734	0	0	-0.0763879	-0.381248	0.714379	0.656089	0.524208	0	0
